<svg width="66" height="49" viewBox="0 0 66 49" fill="none" xmlns="http://www.w3.org/2000/svg">
<g filter="url(#filter0_dd_84_307)">
<rect x="9.84277" y="5" width="46.6143" height="30.0304" rx="5.37857" fill="white"/>
<rect x="9.73072" y="4.88795" width="46.8384" height="30.2545" rx="5.49062" stroke="#D6DCE5" stroke-width="0.224107"/>
<path d="M24.9198 16.0817C25.2308 15.6927 25.4418 15.1704 25.3861 14.6367C24.9309 14.6594 24.3754 14.9371 24.0537 15.3264C23.7649 15.6597 23.5093 16.2039 23.576 16.7152C24.087 16.7595 24.5976 16.4598 24.9198 16.0817Z" fill="#000008"/>
<path d="M25.3804 16.8151C24.6382 16.7709 24.0072 17.2363 23.6528 17.2363C23.2982 17.2363 22.7554 16.8373 22.1684 16.8481C21.4044 16.8593 20.6955 17.2913 20.3078 17.9784C19.5103 19.3528 20.0973 21.3916 20.8728 22.511C21.2494 23.0648 21.7033 23.6746 22.3013 23.6527C22.8663 23.6305 23.0878 23.2868 23.7746 23.2868C24.4609 23.2868 24.6604 23.6527 25.2585 23.6416C25.8788 23.6305 26.2666 23.0875 26.6432 22.5332C27.0752 21.9019 27.252 21.2923 27.2632 21.2588C27.252 21.2477 26.0671 20.7932 26.0561 19.4302C26.0449 18.2889 26.9864 17.746 27.0307 17.7123C26.4991 16.926 25.6684 16.8373 25.3804 16.8151Z" fill="#000008"/>
<path d="M31.8424 15.2705C33.4555 15.2705 34.5787 16.3824 34.5787 18.0013C34.5787 19.6259 33.4324 20.7435 31.802 20.7435H30.016V23.5837H28.7257V15.2705L31.8424 15.2705ZM30.016 19.6604H31.4966C32.6201 19.6604 33.2595 19.0556 33.2595 18.007C33.2595 16.9586 32.6201 16.3594 31.5024 16.3594H30.016V19.6604Z" fill="#000008"/>
<path d="M34.9158 21.8612C34.9158 20.8011 35.7281 20.1501 37.1685 20.0695L38.8276 19.9716V19.505C38.8276 18.8309 38.3724 18.4276 37.6121 18.4276C36.8918 18.4276 36.4424 18.7732 36.3331 19.3148H35.1579C35.227 18.2201 36.1602 17.4136 37.6581 17.4136C39.1272 17.4136 40.0661 18.1914 40.0661 19.4069V23.5837H38.8736V22.5871H38.8449C38.4935 23.2611 37.7272 23.6874 36.9323 23.6874C35.7455 23.6874 34.9158 22.95 34.9158 21.8612ZM38.8276 21.3139V20.8358L37.3354 20.9279C36.5922 20.9798 36.1717 21.3081 36.1717 21.8266C36.1717 22.3566 36.6096 22.7023 37.2779 22.7023C38.1477 22.7023 38.8276 22.1031 38.8276 21.3139Z" fill="#000008"/>
<path d="M41.192 25.8133V24.8051C41.284 24.8281 41.4914 24.8281 41.5952 24.8281C42.1712 24.8281 42.4824 24.5861 42.6724 23.964C42.6724 23.9524 42.782 23.5953 42.782 23.5895L40.5929 17.5231H41.9408L43.4734 22.4546H43.4963L45.0289 17.5231H46.3423L44.0723 23.9005C43.5541 25.3697 42.9549 25.8421 41.699 25.8421C41.5952 25.8421 41.284 25.8305 41.192 25.8133Z" fill="#000008"/>
</g>
<defs>
<filter id="filter0_dd_84_307" x="0.654366" y="0.293736" width="64.9911" height="48.4071" filterUnits="userSpaceOnUse" color-interpolation-filters="sRGB">
<feFlood flood-opacity="0" result="BackgroundImageFix"/>
<feColorMatrix in="SourceAlpha" type="matrix" values="0 0 0 0 0 0 0 0 0 0 0 0 0 0 0 0 0 0 127 0" result="hardAlpha"/>
<feOffset dy="0.448214"/>
<feGaussianBlur stdDeviation="2.24107"/>
<feColorMatrix type="matrix" values="0 0 0 0 0.717647 0 0 0 0 0.717647 0 0 0 0 0.717647 0 0 0 0.08 0"/>
<feBlend mode="normal" in2="BackgroundImageFix" result="effect1_dropShadow_84_307"/>
<feColorMatrix in="SourceAlpha" type="matrix" values="0 0 0 0 0 0 0 0 0 0 0 0 0 0 0 0 0 0 127 0" result="hardAlpha"/>
<feOffset dy="4.48214"/>
<feGaussianBlur stdDeviation="4.48214"/>
<feColorMatrix type="matrix" values="0 0 0 0 0.717647 0 0 0 0 0.717647 0 0 0 0 0.717647 0 0 0 0.08 0"/>
<feBlend mode="normal" in2="effect1_dropShadow_84_307" result="effect2_dropShadow_84_307"/>
<feBlend mode="normal" in="SourceGraphic" in2="effect2_dropShadow_84_307" result="shape"/>
</filter>
</defs>
</svg>
