<svg width="30" height="30" viewBox="0 0 30 30" fill="none" xmlns="http://www.w3.org/2000/svg">
<path d="M13.125 7.5C13.9184 7.49988 14.6821 7.80154 15.2613 8.3438C15.8405 8.88606 16.1917 9.62831 16.2437 10.42L16.25 10.625V16.3812L21.8187 17.1388C22.9952 17.2734 24.0857 17.8212 24.896 18.6847C25.7063 19.5481 26.1839 20.6711 26.2437 21.8537L26.25 22.1062V22.5C26.2506 23.3753 26.1363 24.2469 25.91 25.0925C25.5025 26.6175 24.115 27.4175 22.7875 27.4938L22.5775 27.5H10.295C9.64092 27.5 8.99825 27.3289 8.43076 27.0037C7.86328 26.6785 7.39071 26.2105 7.05998 25.6463L6.94123 25.4275L4.16123 19.8675C3.71123 18.9675 4.04498 17.7638 5.09498 17.3325C6.39873 16.7988 7.63748 16.7 8.91373 17.3475C9.19123 17.4892 9.46373 17.6617 9.73123 17.865L9.99998 18.0775V10.625C9.99998 9.7962 10.3292 9.00134 10.9153 8.41529C11.5013 7.82924 12.2962 7.5 13.125 7.5ZM13.125 2.5C14.3812 2.49977 15.6204 2.79083 16.7451 3.35031C17.8699 3.9098 18.8496 4.72246 19.6072 5.72447C20.3649 6.72647 20.8799 7.89051 21.1118 9.12514C21.3437 10.3598 21.2862 11.6314 20.9437 12.84C20.8475 13.1518 20.633 13.4136 20.3463 13.5695C20.0596 13.7253 19.7233 13.7629 19.4093 13.6741C19.0952 13.5853 18.8284 13.3772 18.6657 13.0943C18.503 12.8114 18.4575 12.4761 18.5387 12.16C18.7881 11.2788 18.8184 10.35 18.6272 9.45429C18.436 8.55863 18.029 7.7232 17.4416 7.02059C16.8541 6.31797 16.104 5.76942 15.2564 5.42259C14.4088 5.07576 13.4893 4.94114 12.5778 5.03043C11.6663 5.11972 10.7904 5.43022 10.0262 5.93495C9.262 6.43968 8.63259 7.12337 8.19266 7.92663C7.75272 8.72989 7.51558 9.62842 7.50183 10.5442C7.48807 11.4599 7.69812 12.3651 8.11373 13.1813C8.26457 13.4766 8.29189 13.8198 8.18968 14.1354C8.08748 14.4509 7.86411 14.7129 7.56873 14.8637C7.27334 15.0146 6.93013 15.0419 6.6146 14.9397C6.29907 14.8375 6.03707 14.6141 5.88623 14.3187C5.25394 13.08 4.95023 11.6996 5.00418 10.3098C5.05814 8.92003 5.46795 7.56736 6.19438 6.38131C6.92081 5.19527 7.93953 4.21555 9.15303 3.53597C10.3665 2.85638 11.7341 2.49967 13.125 2.5Z" fill="white"/>
</svg>
