<svg width="64" height="64" viewBox="0 0 64 64" fill="none" xmlns="http://www.w3.org/2000/svg">
<rect width="64" height="64" rx="32" fill="#5BBDBA" fill-opacity="0.3"/>
<rect x="8" y="8" width="48" height="48" rx="24" fill="#5BBDBA"/>
<path d="M41.9844 30.7232L37.7563 34.4132L39.0228 39.9069C39.0898 40.1941 39.0707 40.4947 38.9678 40.7711C38.865 41.0475 38.6829 41.2874 38.4444 41.4609C38.2059 41.6344 37.9215 41.7337 37.6269 41.7464C37.3323 41.7592 37.0404 41.6848 36.7878 41.5326L31.9963 38.6263L27.215 41.5326C26.9624 41.6848 26.6706 41.7592 26.3759 41.7464C26.0813 41.7337 25.7969 41.6344 25.5584 41.4609C25.3199 41.2874 25.1379 41.0475 25.035 40.7711C24.9321 40.4947 24.913 40.1941 24.98 39.9069L26.2447 34.4188L22.0156 30.7232C21.792 30.5303 21.6302 30.2756 21.5507 29.9911C21.4712 29.7067 21.4774 29.405 21.5686 29.1241C21.6598 28.8432 21.8319 28.5954 22.0634 28.4119C22.2949 28.2284 22.5754 28.1173 22.8697 28.0926L28.4441 27.6097L30.62 22.4197C30.7336 22.1474 30.9253 21.9148 31.1709 21.7512C31.4164 21.5876 31.7049 21.5002 32 21.5002C32.2951 21.5002 32.5836 21.5876 32.8291 21.7512C33.0747 21.9148 33.2664 22.1474 33.38 22.4197L35.5625 27.6097L41.135 28.0926C41.4293 28.1173 41.7098 28.2284 41.9413 28.4119C42.1728 28.5954 42.3449 28.8432 42.4361 29.1241C42.5273 29.405 42.5335 29.7067 42.454 29.9911C42.3745 30.2756 42.2127 30.5303 41.9891 30.7232H41.9844Z" fill="white"/>
</svg>
