<svg width="38" height="38" viewBox="0 0 38 38" fill="none" xmlns="http://www.w3.org/2000/svg">
<path d="M19 3.5625C15.9468 3.5625 12.9621 4.46789 10.4234 6.16419C7.88471 7.86048 5.90604 10.2715 4.73762 13.0923C3.56919 15.9132 3.26347 19.0171 3.85913 22.0117C4.45479 25.0063 5.92507 27.757 8.08405 29.916C10.243 32.0749 12.9937 33.5452 15.9883 34.1409C18.9829 34.7365 22.0868 34.4308 24.9077 33.2624C27.7285 32.094 30.1395 30.1153 31.8358 27.5766C33.5321 25.0379 34.4375 22.0532 34.4375 19C34.4332 14.907 32.8053 10.983 29.9112 8.08881C27.017 5.19466 23.093 3.56682 19 3.5625ZM24.5902 22.9098C24.7005 23.0202 24.788 23.1512 24.8477 23.2953C24.9074 23.4395 24.9382 23.594 24.9382 23.75C24.9382 23.906 24.9074 24.0605 24.8477 24.2047C24.788 24.3488 24.7005 24.4798 24.5902 24.5902C24.4798 24.7005 24.3489 24.788 24.2047 24.8477C24.0605 24.9074 23.906 24.9382 23.75 24.9382C23.594 24.9382 23.4395 24.9074 23.2953 24.8477C23.1512 24.788 23.0202 24.7005 22.9098 24.5902L19 20.6788L15.0902 24.5902C14.9798 24.7005 14.8489 24.788 14.7047 24.8477C14.5605 24.9074 14.406 24.9382 14.25 24.9382C14.094 24.9382 13.9395 24.9074 13.7953 24.8477C13.6512 24.788 13.5202 24.7005 13.4099 24.5902C13.2995 24.4798 13.212 24.3488 13.1523 24.2047C13.0926 24.0605 13.0618 23.906 13.0618 23.75C13.0618 23.594 13.0926 23.4395 13.1523 23.2953C13.212 23.1512 13.2995 23.0202 13.4099 22.9098L17.3212 19L13.4099 15.0902C13.187 14.8673 13.0618 14.5651 13.0618 14.25C13.0618 13.9349 13.187 13.6327 13.4099 13.4098C13.6327 13.187 13.9349 13.0618 14.25 13.0618C14.5651 13.0618 14.8673 13.187 15.0902 13.4098L19 17.3212L22.9098 13.4098C23.0202 13.2995 23.1512 13.212 23.2953 13.1523C23.4395 13.0926 23.594 13.0618 23.75 13.0618C23.906 13.0618 24.0605 13.0926 24.2047 13.1523C24.3489 13.212 24.4798 13.2995 24.5902 13.4098C24.7005 13.5202 24.788 13.6512 24.8477 13.7953C24.9074 13.9395 24.9382 14.094 24.9382 14.25C24.9382 14.406 24.9074 14.5605 24.8477 14.7047C24.788 14.8488 24.7005 14.9798 24.5902 15.0902L20.6788 19L24.5902 22.9098Z" fill="#FF777A"/>
</svg>
