<svg width="41" height="41" viewBox="0 0 41 41" fill="none" xmlns="http://www.w3.org/2000/svg">
<path d="M34.0317 1.4503C30.265 1.4503 26.6633 2.15946 23.3525 3.4528C23.3009 3.473 23.2538 3.5033 23.214 3.54194C23.1742 3.58057 23.1425 3.62676 23.1208 3.6778L23.12 3.6803L23.1167 3.68863L23.1042 3.7178L23.0567 3.8303L22.8875 4.2428C22.7458 4.5903 22.5542 5.07113 22.3525 5.60363C22.0604 6.36209 21.7969 7.13124 21.5625 7.90946L20.29 6.13863C20.1091 5.88437 19.8384 5.70817 19.5327 5.64554C19.227 5.58291 18.9089 5.63851 18.6425 5.80113C10.3525 10.912 4.79418 20.0303 4.66918 30.4561C3.32835 32.6061 2.22168 34.8461 1.42418 37.1561C1.35278 37.3631 1.32283 37.5821 1.33605 37.8006C1.34927 38.0191 1.40541 38.2329 1.50124 38.4297C1.59708 38.6265 1.73075 38.8025 1.89461 38.9477C2.05847 39.0928 2.24932 39.2043 2.45627 39.2757C2.66321 39.3471 2.88219 39.3771 3.1007 39.3638C3.31922 39.3506 3.53299 39.2945 3.72981 39.1987C3.92663 39.1028 4.10265 38.9691 4.24781 38.8053C4.39298 38.6414 4.50444 38.4506 4.57585 38.2436C6.53585 32.5578 10.7008 27.1545 15.8017 22.4103C19.6942 18.7903 24.1933 15.782 28.8658 13.2661C29.0104 13.1883 29.1689 13.1397 29.3322 13.1232C29.4956 13.1066 29.6606 13.1224 29.8178 13.1696C29.975 13.2168 30.1214 13.2945 30.2486 13.3983C30.3759 13.5021 30.4814 13.6299 30.5592 13.7745C30.637 13.919 30.6856 14.0775 30.7021 14.2408C30.7187 14.4042 30.7029 14.5692 30.6557 14.7264C30.6085 14.8837 30.5308 15.0301 30.427 15.1573C30.3232 15.2845 30.1954 15.39 30.0508 15.4678C25.6675 17.8286 20.7825 21.1145 16.5842 25.0186C13.1258 28.2353 10.1817 31.8261 8.34168 35.617H9.46835C14.91 35.617 20.0075 34.1361 24.3775 31.5561C25.2317 31.0511 25.1367 29.837 24.2825 29.4128L22.4833 28.517C23.7375 28.4086 25.1658 28.207 26.4117 28.007C27.52 27.8295 28.6258 27.637 29.7267 27.4186C29.8053 27.4028 29.8776 27.3646 29.935 27.3086C35.4233 21.9745 38.8333 14.5111 38.8333 6.2503C38.8333 5.27419 38.7864 4.30974 38.6925 3.35696C38.6483 2.90341 38.448 2.47928 38.1258 2.15705C37.8035 1.83482 37.3794 1.63449 36.9258 1.5903C35.964 1.49676 34.9981 1.44976 34.0317 1.44946" fill="#5BBDBA"/>
</svg>
