<svg width="48" height="49" viewBox="0 0 48 49" fill="none" xmlns="http://www.w3.org/2000/svg">
<rect y="0.5" width="48" height="48" rx="8" fill="#5BBDBA"/>
<path d="M32.119 13.25C29.859 13.25 27.698 13.6755 25.7115 14.4515C25.6805 14.4636 25.6522 14.4818 25.6284 14.505C25.6045 14.5282 25.5855 14.5559 25.5725 14.5865L25.572 14.588L25.57 14.593L25.5625 14.6105L25.534 14.678L25.4325 14.9255C25.3475 15.134 25.2325 15.4225 25.1115 15.742C24.9362 16.1971 24.7781 16.6586 24.6375 17.1255L23.874 16.063C23.7654 15.9105 23.603 15.8047 23.4196 15.7672C23.2362 15.7296 23.0453 15.7629 22.8855 15.8605C17.9115 18.927 14.5765 24.398 14.5015 30.6535C13.697 31.9435 13.033 33.2875 12.5545 34.6735C12.5116 34.7977 12.4937 34.9291 12.5016 35.0602C12.5095 35.1913 12.5432 35.3195 12.6007 35.4376C12.6582 35.5557 12.7384 35.6613 12.8367 35.7484C12.9351 35.8355 13.0496 35.9024 13.1737 35.9453C13.2979 35.9881 13.4293 36.0061 13.5604 35.9981C13.6915 35.9902 13.8198 35.9565 13.9379 35.899C14.056 35.8415 14.1616 35.7613 14.2487 35.663C14.3358 35.5647 14.4026 35.4502 14.4455 35.326C15.6215 31.9145 18.1205 28.6725 21.181 25.826C23.5165 23.654 26.216 21.849 29.0195 20.3395C29.1062 20.2928 29.2013 20.2637 29.2993 20.2537C29.3973 20.2438 29.4963 20.2533 29.5907 20.2816C29.685 20.3099 29.7728 20.3565 29.8492 20.4188C29.9255 20.4811 29.9888 20.5578 30.0355 20.6445C30.0822 20.7312 30.1113 20.8263 30.1213 20.9243C30.1312 21.0223 30.1217 21.1213 30.0934 21.2157C30.0651 21.31 30.0185 21.3979 29.9562 21.4742C29.8939 21.5505 29.8172 21.6138 29.7305 21.6605C27.1005 23.077 24.1695 25.0485 21.6505 27.391C19.5755 29.321 17.809 31.4755 16.705 33.75H17.381C20.646 33.75 23.7045 32.8615 26.3265 31.3135C26.839 31.0105 26.782 30.282 26.2695 30.0275L25.19 29.49C25.9425 29.425 26.7995 29.304 27.547 29.184C28.212 29.0775 28.8755 28.962 29.536 28.831C29.5831 28.8215 29.6265 28.7986 29.661 28.765C32.954 25.5645 35 21.0865 35 16.13C35 15.5443 34.9718 14.9657 34.9155 14.394C34.889 14.1219 34.7688 13.8674 34.5754 13.6741C34.3821 13.4807 34.1276 13.3605 33.8555 13.334C33.2784 13.2779 32.6988 13.2497 32.119 13.2495" fill="white"/>
</svg>
