<svg width="24" height="24" viewBox="0 0 24 24" fill="none" xmlns="http://www.w3.org/2000/svg">
<path d="M20.119 0.750012C17.859 0.750012 15.698 1.17551 13.7115 1.95151C13.6805 1.96363 13.6522 1.98182 13.6283 2.005C13.6045 2.02818 13.5855 2.05589 13.5725 2.08651L13.572 2.08801L13.57 2.09301L13.5625 2.11051L13.534 2.17801L13.4325 2.42551C13.3475 2.63401 13.2325 2.92251 13.1115 3.24201C12.9362 3.69709 12.7781 4.15858 12.6375 4.62551L11.874 3.56301C11.7654 3.41046 11.603 3.30474 11.4196 3.26716C11.2361 3.22958 11.0453 3.26294 10.8855 3.36051C5.91146 6.42701 2.57646 11.898 2.50146 18.1535C1.69696 19.4435 1.03296 20.7875 0.554461 22.1735C0.511617 22.2977 0.493649 22.4291 0.501582 22.5602C0.509515 22.6913 0.543195 22.8195 0.600698 22.9376C0.6582 23.0557 0.7384 23.1613 0.836718 23.2484C0.935035 23.3355 1.04955 23.4024 1.17371 23.4453C1.29788 23.4881 1.42926 23.5061 1.56037 23.4981C1.69148 23.4902 1.81974 23.4565 1.93784 23.399C2.05593 23.3415 2.16154 23.2613 2.24864 23.163C2.33574 23.0647 2.40262 22.9502 2.44546 22.826C3.62146 19.4145 6.12046 16.1725 9.18096 13.326C11.5165 11.154 14.216 9.34901 17.0195 7.83951C17.1062 7.79283 17.2013 7.76368 17.2993 7.75375C17.3973 7.74381 17.4963 7.75327 17.5906 7.78159C17.685 7.80991 17.7728 7.85654 17.8491 7.91881C17.9255 7.98108 17.9888 8.05777 18.0355 8.14451C18.0821 8.23125 18.1113 8.32633 18.1212 8.42434C18.1312 8.52234 18.1217 8.62134 18.0934 8.71568C18.0651 8.81002 18.0184 8.89787 17.9562 8.97419C17.8939 9.05051 17.8172 9.11383 17.7305 9.16051C15.1005 10.577 12.1695 12.5485 9.65046 14.891C7.57546 16.821 5.80896 18.9755 4.70496 21.25H5.38096C8.64596 21.25 11.7045 20.3615 14.3265 18.8135C14.839 18.5105 14.782 17.782 14.2695 17.5275L13.19 16.99C13.9425 16.925 14.7995 16.804 15.547 16.684C16.212 16.5775 16.8755 16.462 17.536 16.331C17.5831 16.3215 17.6265 16.2986 17.661 16.265C20.954 13.0645 23 8.58651 23 3.63001C23 3.04435 22.9718 2.46568 22.9155 1.89401C22.8889 1.62188 22.7687 1.3674 22.5754 1.17406C22.3821 0.980726 22.1276 0.860528 21.8555 0.834012C21.2783 0.777891 20.6988 0.749692 20.119 0.749512" fill="white"/>
</svg>
