<svg width="48" height="49" viewBox="0 0 48 49" fill="none" xmlns="http://www.w3.org/2000/svg">
<rect y="0.5" width="48" height="48" rx="8" fill="#5BBDBA"/>
<g clip-path="url(#clip0_70_93)">
<path d="M24.046 18.9008C23.8096 18.6657 23.4294 18.6606 23.1878 18.8903C21.9776 20.0406 18.6307 23.4505 18.2157 26.3472C17.708 29.892 20.7028 32.4546 23.6224 32.4546C26.542 32.4546 29.5651 29.97 29.09 26.3472C28.7534 23.781 25.2712 20.1194 24.046 18.9008Z" fill="white"/>
</g>
<g clip-path="url(#clip1_70_93)">
<path d="M24.0006 11.4204C32.1019 11.4206 38.6705 17.9899 38.6705 26.0913C38.6703 34.1925 32.1018 40.761 24.0006 40.7612C15.8992 40.7612 9.32994 34.1927 9.32971 26.0913C9.32971 17.9898 15.8991 11.4204 24.0006 11.4204ZM15.1158 19.936C13.9028 21.6823 13.191 23.8042 13.191 26.0913C13.1913 32.0592 18.0327 36.8999 24.0006 36.8999C26.2875 36.8998 28.4088 36.1881 30.1549 34.9751L15.1158 19.936ZM24.0006 15.2817C21.7135 15.2817 19.5916 15.9935 17.8453 17.2065L32.8844 32.2456C34.0974 30.4995 34.8091 28.3782 34.8092 26.0913C34.8092 20.1234 29.9685 15.282 24.0006 15.2817Z" fill="white" stroke="#5BBDBA" stroke-width="1.5"/>
</g>
<defs>
<clipPath id="clip0_70_93">
<rect width="25.4545" height="25.4546" fill="white" transform="translate(13.3937 7)"/>
</clipPath>
<clipPath id="clip1_70_93">
<rect width="31.8182" height="31.8182" fill="white" transform="translate(8.09106 10.1818)"/>
</clipPath>
</defs>
</svg>
