<svg width="48" height="48" viewBox="0 0 48 48" fill="none" xmlns="http://www.w3.org/2000/svg">
<rect width="48" height="48" rx="8" fill="#5BBDBA"/>
<g clip-path="url(#clip0_70_242)">
<path d="M24.0461 18.4008C23.8097 18.1657 23.4295 18.1606 23.1879 18.3903C21.9777 19.5406 18.6308 22.9505 18.2158 25.8472C17.7081 29.392 20.7029 31.9546 23.6225 31.9546C26.542 31.9546 29.5652 29.47 29.0901 25.8472C28.7535 23.281 25.2713 19.6194 24.0461 18.4008Z" fill="white"/>
</g>
<g clip-path="url(#clip1_70_242)">
<path d="M24.0006 10.9204C32.1019 10.9206 38.6705 17.4899 38.6705 25.5913C38.6703 33.6925 32.1018 40.261 24.0006 40.2612C15.8992 40.2612 9.32994 33.6927 9.32971 25.5913C9.32971 17.4898 15.8991 10.9204 24.0006 10.9204ZM15.1158 19.436C13.9028 21.1823 13.191 23.3042 13.191 25.5913C13.1913 31.5592 18.0327 36.3999 24.0006 36.3999C26.2875 36.3998 28.4088 35.6881 30.1549 34.4751L15.1158 19.436ZM24.0006 14.7817C21.7135 14.7817 19.5916 15.4935 17.8453 16.7065L32.8844 31.7456C34.0974 29.9995 34.8091 27.8782 34.8092 25.5913C34.8092 19.6234 29.9685 14.782 24.0006 14.7817Z" fill="white" stroke="#5BBDBA" stroke-width="1.5"/>
</g>
<defs>
<clipPath id="clip0_70_242">
<rect width="25.4545" height="25.4546" fill="white" transform="translate(13.3938 6.5)"/>
</clipPath>
<clipPath id="clip1_70_242">
<rect width="31.8182" height="31.8182" fill="white" transform="translate(8.09106 9.68164)"/>
</clipPath>
</defs>
</svg>
