<svg width="64" height="64" viewBox="0 0 64 64" fill="none" xmlns="http://www.w3.org/2000/svg">
<rect width="64" height="64" rx="32" fill="#5BBDBA" fill-opacity="0.3"/>
<rect x="8" y="8" width="48" height="48" rx="24" fill="#5BBDBA"/>
<g clip-path="url(#clip0_70_61)">
<path d="M41.9375 27.5113C41.7263 27.2719 41.4666 27.0803 41.1757 26.949C40.8847 26.8178 40.5692 26.7499 40.25 26.75H35V25.25C35 24.2554 34.6049 23.3016 33.9017 22.5983C33.1984 21.8951 32.2446 21.5 31.25 21.5C31.1107 21.4999 30.9741 21.5386 30.8555 21.6118C30.7369 21.685 30.6411 21.7898 30.5787 21.9144L27.0369 29H23C22.6022 29 22.2206 29.158 21.9393 29.4393C21.658 29.7206 21.5 30.1022 21.5 30.5V38.75C21.5 39.1478 21.658 39.5294 21.9393 39.8107C22.2206 40.092 22.6022 40.25 23 40.25H39.125C39.6732 40.2502 40.2025 40.0503 40.6137 39.6878C41.0249 39.3253 41.2896 38.8251 41.3581 38.2812L42.4831 29.2812C42.523 28.9644 42.495 28.6427 42.4009 28.3375C42.3068 28.0323 42.1488 27.7507 41.9375 27.5113ZM23 30.5H26.75V38.75H23V30.5Z" fill="white"/>
</g>
<defs>
<clipPath id="clip0_70_61">
<rect width="24" height="24" fill="white" transform="translate(20 20)"/>
</clipPath>
</defs>
</svg>
