<svg width="32" height="36" viewBox="0 0 32 36" fill="none" xmlns="http://www.w3.org/2000/svg">
<g clip-path="url(#clip0_84_260)">
<path d="M16.0456 12.4008C15.8092 12.1657 15.429 12.1606 15.1874 12.3903C13.9772 13.5406 10.6303 16.9505 10.2153 19.8472C9.70759 23.392 12.7024 25.9546 15.622 25.9546C18.5416 25.9546 21.5647 23.47 21.0896 19.8472C20.753 17.281 17.2708 13.6194 16.0456 12.4008Z" fill="white"/>
</g>
<g clip-path="url(#clip1_84_260)">
<path d="M16.0002 4.92041C24.1016 4.92065 30.6702 11.4899 30.6702 19.5913C30.6699 27.6925 24.1014 34.261 16.0002 34.2612C7.89885 34.2612 1.32958 27.6927 1.32935 19.5913C1.32935 11.4898 7.89871 4.92041 16.0002 4.92041ZM7.11548 13.436C5.90243 15.1823 5.19067 17.3042 5.19067 19.5913C5.1909 25.5592 10.0323 30.3999 16.0002 30.3999C18.2872 30.3998 20.4084 29.6881 22.1545 28.4751L7.11548 13.436ZM16.0002 8.78174C13.7131 8.78174 11.5912 9.4935 9.84497 10.7065L24.884 25.7456C26.097 23.9995 26.8087 21.8782 26.8088 19.5913C26.8088 13.6234 21.9681 8.78198 16.0002 8.78174Z" fill="white" stroke="#5BBDBA" stroke-width="1.5"/>
</g>
<defs>
<clipPath id="clip0_84_260">
<rect width="25.4545" height="25.4546" fill="white" transform="translate(5.39331 0.5)"/>
</clipPath>
<clipPath id="clip1_84_260">
<rect width="31.8182" height="31.8182" fill="white" transform="translate(0.0908203 3.68176)"/>
</clipPath>
</defs>
</svg>
