<svg width="64" height="64" viewBox="0 0 64 64" fill="none" xmlns="http://www.w3.org/2000/svg">
<rect width="64" height="64" rx="32" fill="#5BBDBA" fill-opacity="0.3"/>
<rect x="8" y="8" width="48" height="48" rx="24" fill="#5BBDBA"/>
<g clip-path="url(#clip0_70_70)">
<path d="M39.5 27.5H36.5V25.25C36.5 24.0565 36.0259 22.9119 35.182 22.068C34.3381 21.2241 33.1935 20.75 32 20.75C30.8065 20.75 29.6619 21.2241 28.818 22.068C27.9741 22.9119 27.5 24.0565 27.5 25.25V27.5H24.5C24.1022 27.5 23.7206 27.658 23.4393 27.9393C23.158 28.2206 23 28.6022 23 29V39.5C23 39.8978 23.158 40.2794 23.4393 40.5607C23.7206 40.842 24.1022 41 24.5 41H39.5C39.8978 41 40.2794 40.842 40.5607 40.5607C40.842 40.2794 41 39.8978 41 39.5V29C41 28.6022 40.842 28.2206 40.5607 27.9393C40.2794 27.658 39.8978 27.5 39.5 27.5ZM29 25.25C29 24.4544 29.3161 23.6913 29.8787 23.1287C30.4413 22.5661 31.2044 22.25 32 22.25C32.7956 22.25 33.5587 22.5661 34.1213 23.1287C34.6839 23.6913 35 24.4544 35 25.25V27.5H29V25.25Z" fill="white"/>
</g>
<defs>
<clipPath id="clip0_70_70">
<rect width="24" height="24" fill="white" transform="translate(20 20)"/>
</clipPath>
</defs>
</svg>
