<svg width="82" height="82" viewBox="0 0 82 82" fill="none" xmlns="http://www.w3.org/2000/svg">
<path d="M23.5955 15.5015C23.2843 15.317 22.9297 15.2181 22.5679 15.2149C22.2061 15.2118 21.8499 15.3044 21.5355 15.4835C21.221 15.6626 20.9596 15.9217 20.7778 16.2345C20.5959 16.5473 20.5001 16.9027 20.5 17.2645V64.7357C20.5001 65.0975 20.5959 65.4529 20.7778 65.7657C20.9596 66.0785 21.221 66.3376 21.5355 66.5166C21.8499 66.6957 22.2061 66.7884 22.5679 66.7852C22.9297 66.7821 23.2843 66.6832 23.5955 66.4987L63.6491 42.7631C63.955 42.5816 64.2084 42.3236 64.3844 42.0145C64.5604 41.7054 64.653 41.3558 64.653 41.0001C64.653 40.6444 64.5604 40.2948 64.3844 39.9857C64.2084 39.6766 63.955 39.4186 63.6491 39.2371L23.5955 15.5015Z" fill="white" stroke="white" stroke-width="1.5" stroke-linecap="round" stroke-linejoin="round"/>
</svg>
