<svg width="48" height="48" viewBox="0 0 48 48" fill="none" xmlns="http://www.w3.org/2000/svg">
<rect width="48" height="48" rx="8" fill="#5BBDBA"/>
<path d="M22.125 16.5C22.9184 16.4999 23.6821 16.8015 24.2613 17.3438C24.8405 17.8861 25.1917 18.6283 25.2437 19.42L25.25 19.625V25.3812L30.8187 26.1388C31.9952 26.2734 33.0857 26.8212 33.896 27.6847C34.7063 28.5481 35.1839 29.6711 35.2437 30.8538L35.25 31.1062V31.5C35.2506 32.3753 35.1363 33.2469 34.91 34.0925C34.5025 35.6175 33.115 36.4175 31.7875 36.4938L31.5775 36.5H19.295C18.6409 36.5 17.9983 36.3289 17.4308 36.0037C16.8633 35.6785 16.3907 35.2105 16.06 34.6462L15.9412 34.4275L13.1612 28.8675C12.7112 27.9675 13.045 26.7638 14.095 26.3325C15.3987 25.7987 16.6375 25.7 17.9137 26.3475C18.1912 26.4892 18.4637 26.6617 18.7312 26.865L19 27.0775V19.625C19 18.7962 19.3292 18.0013 19.9153 17.4153C20.5013 16.8292 21.2962 16.5 22.125 16.5ZM22.125 11.5C23.3812 11.4998 24.6204 11.7908 25.7451 12.3503C26.8699 12.9098 27.8496 13.7225 28.6072 14.7245C29.3649 15.7265 29.8799 16.8905 30.1118 18.1251C30.3437 19.3598 30.2862 20.6314 29.9437 21.84C29.8475 22.1518 29.633 22.4136 29.3463 22.5695C29.0596 22.7253 28.7233 22.7629 28.4093 22.6741C28.0952 22.5853 27.8284 22.3772 27.6657 22.0943C27.503 21.8114 27.4575 21.4761 27.5387 21.16C27.7881 20.2788 27.8184 19.35 27.6272 18.4543C27.436 17.5586 27.029 16.7232 26.4416 16.0206C25.8541 15.318 25.104 14.7694 24.2564 14.4226C23.4088 14.0758 22.4893 13.9411 21.5778 14.0304C20.6663 14.1197 19.7904 14.4302 19.0262 14.9349C18.262 15.4397 17.6326 16.1234 17.1927 16.9266C16.7527 17.7299 16.5156 18.6284 16.5018 19.5442C16.4881 20.4599 16.6981 21.3651 17.1137 22.1812C17.2646 22.4766 17.2919 22.8198 17.1897 23.1354C17.0875 23.4509 16.8641 23.7129 16.5687 23.8637C16.2733 24.0146 15.9301 24.0419 15.6146 23.9397C15.2991 23.8375 15.0371 23.6141 14.8862 23.3188C14.2539 22.08 13.9502 20.6996 14.0042 19.3098C14.0581 17.92 14.4679 16.5674 15.1944 15.3813C15.9208 14.1953 16.9395 13.2156 18.153 12.536C19.3665 11.8564 20.7341 11.4997 22.125 11.5Z" fill="white"/>
</svg>
