<svg width="24" height="24" viewBox="0 0 24 24" fill="none" xmlns="http://www.w3.org/2000/svg">
<g clip-path="url(#clip0_84_255)">
<g clip-path="url(#clip1_84_255)">
<path d="M17.0988 0.525665L0.525625 17.1013C0.188862 17.4401 3.92796e-05 17.8985 0.000489083 18.3762C0.000938886 18.8539 0.190624 19.3119 0.528025 19.6501L4.35002 23.4745C4.68834 23.8116 5.14634 24.0011 5.62393 24.0015C6.10152 24.002 6.55988 23.8133 6.89883 23.4769L23.4744 6.90127C23.8104 6.56197 23.9989 6.10377 23.9989 5.62627C23.9989 5.14876 23.8104 4.69056 23.4744 4.35127L19.6512 0.525665C19.3118 0.188944 18.8531 0 18.375 0C17.8969 0 17.4382 0.188944 17.0988 0.525665ZM4.71482 18.3745L3.80402 19.2853L1.52883 17.0089L2.43962 16.0981L4.71482 18.3745ZM8.35803 18.3745L7.44722 19.2853L3.34922 15.1873L4.26002 14.2753L8.35803 18.3745ZM8.35803 14.7313L7.44722 15.6421L5.16963 13.3669L6.08162 12.4549L8.35803 14.7313ZM10.1796 12.9097L9.26882 13.8205L6.99363 11.5453L7.90442 10.6333L10.1796 12.9097ZM13.8216 12.9097L12.9108 13.8205L8.81402 9.72367L9.72482 8.81287L13.8216 12.9097ZM13.8216 9.26767L12.9108 10.1785L10.6356 7.90327L11.5464 6.99247L13.8216 9.26767ZM15.6432 7.44727L14.7324 8.35807L12.456 6.08167L13.3668 5.17087L15.6432 7.44727ZM19.2864 7.44727L18.3744 8.35807L14.2776 4.26007L15.1884 3.34807L19.2864 7.44727ZM19.2852 3.80527L18.3744 4.71607L16.0992 2.43847L17.01 1.52887L19.2852 3.80527Z" fill="white"/>
</g>
</g>
<defs>
<clipPath id="clip0_84_255">
<rect width="24" height="24" fill="white"/>
</clipPath>
<clipPath id="clip1_84_255">
<rect width="24" height="24" fill="white"/>
</clipPath>
</defs>
</svg>
