<svg width="40" height="41" viewBox="0 0 40 41" fill="none" xmlns="http://www.w3.org/2000/svg">
<g clip-path="url(#clip0_70_152)">
<g clip-path="url(#clip1_70_152)">
<path d="M28.498 1.0763L0.875961 28.7023C0.314688 29.267 -1.59143e-05 30.031 0.000733758 30.8271C0.00148343 31.6233 0.317626 32.3867 0.879961 32.9503L7.24996 39.3243C7.81381 39.8862 8.57714 40.202 9.37314 40.2027C10.1691 40.2035 10.9331 39.8891 11.498 39.3283L39.124 11.7023C39.6839 11.1368 39.9981 10.3731 39.9981 9.5773C39.9981 8.78146 39.6839 8.01779 39.124 7.4523L32.752 1.0763C32.1863 0.515103 31.4218 0.200195 30.625 0.200195C29.8281 0.200195 29.0636 0.515103 28.498 1.0763ZM7.85796 30.8243L6.33996 32.3423L2.54796 28.5483L4.06596 27.0303L7.85796 30.8243ZM13.93 30.8243L12.412 32.3423L5.58196 25.5123L7.09996 23.9923L13.93 30.8243ZM13.93 24.7523L12.412 26.2703L8.61596 22.4783L10.136 20.9583L13.93 24.7523ZM16.966 21.7163L15.448 23.2343L11.656 19.4423L13.174 17.9223L16.966 21.7163ZM23.036 21.7163L21.518 23.2343L14.69 16.4063L16.208 14.8883L23.036 21.7163ZM23.036 15.6463L21.518 17.1643L17.726 13.3723L19.244 11.8543L23.036 15.6463ZM26.072 12.6123L24.554 14.1303L20.76 10.3363L22.278 8.8183L26.072 12.6123ZM32.144 12.6123L30.624 14.1303L23.796 7.3003L25.314 5.7803L32.144 12.6123ZM32.142 6.5423L30.624 8.0603L26.832 4.2643L28.35 2.7483L32.142 6.5423Z" fill="#5BBDBA"/>
</g>
</g>
<defs>
<clipPath id="clip0_70_152">
<rect width="40" height="40" fill="white" transform="translate(0 0.200195)"/>
</clipPath>
<clipPath id="clip1_70_152">
<rect width="40" height="40" fill="white" transform="translate(0 0.200195)"/>
</clipPath>
</defs>
</svg>
