<svg width="64" height="64" viewBox="0 0 64 64" fill="none" xmlns="http://www.w3.org/2000/svg">
<rect width="64" height="64" rx="32" fill="#5BBDBA" fill-opacity="0.3"/>
<rect x="8" y="8" width="48" height="48" rx="24" fill="#5BBDBA"/>
<path d="M40.97 26.2016L32.72 21.6875C32.4996 21.5657 32.2518 21.5018 32 21.5018C31.7482 21.5018 31.5004 21.5657 31.28 21.6875L23.03 26.2035C22.7944 26.3324 22.5977 26.5222 22.4605 26.753C22.3233 26.9839 22.2506 27.2474 22.25 27.516V36.4822C22.2506 36.7508 22.3233 37.0142 22.4605 37.2451C22.5977 37.476 22.7944 37.6658 23.03 37.7947L31.28 42.3106C31.5004 42.4324 31.7482 42.4963 32 42.4963C32.2518 42.4963 32.4996 42.4324 32.72 42.3106L40.97 37.7947C41.2056 37.6658 41.4023 37.476 41.5395 37.2451C41.6767 37.0142 41.7494 36.7508 41.75 36.4822V27.5169C41.7499 27.2478 41.6774 26.9838 41.5402 26.7524C41.403 26.521 41.206 26.3307 40.97 26.2016ZM32 23L39.5328 27.125L36.7409 28.6522L29.2081 24.5272L32 23ZM32 31.25L24.4672 27.125L27.6462 25.3841L35.1791 29.5091L32 31.25ZM40.25 36.486L32.75 40.5913V32.5466L35.75 30.905V34.25C35.75 34.4489 35.829 34.6397 35.9697 34.7803C36.1103 34.921 36.3011 35 36.5 35C36.6989 35 36.8897 34.921 37.0303 34.7803C37.171 34.6397 37.25 34.4489 37.25 34.25V30.0838L40.25 28.4422V36.4822V36.486Z" fill="white"/>
</svg>
