<svg width="20" height="20" viewBox="0 0 20 20" fill="none" xmlns="http://www.w3.org/2000/svg">
<g clip-path="url(#clip0_84_241)">
<path d="M9.86321 14.8828L4.86321 16.7969C4.63274 16.8828 4.39055 16.707 4.40227 16.4609L4.67571 11.1133C4.67961 11.0313 4.65227 10.9492 4.60149 10.8828L1.2343 6.71875C1.07805 6.52734 1.1718 6.24219 1.41008 6.17578L6.58196 4.78516C6.66399 4.76172 6.7343 4.71094 6.77727 4.64063L9.69914 0.15625C9.83196 -0.0507813 10.1366 -0.0507813 10.2695 0.15625L13.1913 4.64453C13.2382 4.71484 13.3085 4.76562 13.3866 4.78906L18.5585 6.17969C18.7968 6.24219 18.8906 6.53125 18.7343 6.72266L15.371 10.8867C15.3202 10.9531 15.2929 11.0352 15.2968 11.1172L15.5702 16.4648C15.582 16.7109 15.3398 16.8867 15.1093 16.8008L10.1093 14.8867C10.0273 14.8555 9.94133 14.8555 9.86321 14.8828Z" fill="#FFB636"/>
<path d="M17.8164 2.01956L16.2148 0.417995C16.1679 0.37112 16.1054 0.351589 16.0429 0.359401C15.9804 0.367214 15.9218 0.406276 15.8906 0.460964L14.2382 3.71487C14.1914 3.7969 14.207 3.89456 14.2734 3.96096C14.3125 4.00003 14.3672 4.01956 14.4179 4.01956C14.4531 4.01956 14.4882 4.01174 14.5195 3.99221L17.7695 2.34378C17.8242 2.31253 17.8632 2.25784 17.8711 2.19143C17.8828 2.12893 17.8593 2.06643 17.8164 2.01956ZM5.82418 3.71878L4.17184 0.46487C4.14059 0.410182 4.0859 0.37112 4.0195 0.363307C3.957 0.355495 3.89059 0.375026 3.84762 0.421901L2.24606 2.02346C2.19918 2.07034 2.17965 2.13284 2.18747 2.19534C2.19528 2.25784 2.23434 2.31643 2.28903 2.34768L5.54293 4.00003C5.57418 4.01956 5.60934 4.02737 5.6445 4.02737C5.69918 4.02737 5.74996 4.00784 5.78903 3.96878C5.85543 3.89846 5.86715 3.7969 5.82418 3.71878ZM11.3203 19.7344L10.1875 16.2657C10.1797 16.2305 10.1601 16.1992 10.1367 16.1758C10.0976 16.1367 10.0468 16.1172 9.99215 16.1172C9.8984 16.1172 9.82028 16.1797 9.79293 16.2696L8.66012 19.7383C8.6445 19.8008 8.65622 19.8672 8.69528 19.918C8.73434 19.9688 8.79293 20 8.85934 20H11.1211C11.1836 20 11.2461 19.9688 11.2851 19.918C11.3281 19.8633 11.3398 19.7969 11.3203 19.7344Z" fill="#FFD469"/>
</g>
<defs>
<clipPath id="clip0_84_241">
<rect width="20" height="20" fill="white"/>
</clipPath>
</defs>
</svg>
