<svg width="38" height="38" viewBox="0 0 38 38" fill="none" xmlns="http://www.w3.org/2000/svg">
<path d="M19 3.5625C15.9468 3.5625 12.9621 4.46789 10.4234 6.16419C7.88471 7.86048 5.90604 10.2715 4.73762 13.0923C3.56919 15.9132 3.26347 19.0171 3.85913 22.0117C4.45479 25.0063 5.92507 27.757 8.08405 29.916C10.243 32.0749 12.9937 33.5452 15.9883 34.1409C18.9829 34.7365 22.0868 34.4308 24.9077 33.2624C27.7285 32.094 30.1395 30.1153 31.8358 27.5766C33.5321 25.0379 34.4375 22.0532 34.4375 19C34.4332 14.907 32.8054 10.983 29.9112 8.08881C27.017 5.19466 23.093 3.56682 19 3.5625ZM25.7777 16.2777L17.4652 24.5902C17.3549 24.7006 17.2239 24.7882 17.0797 24.8479C16.9356 24.9077 16.7811 24.9384 16.625 24.9384C16.469 24.9384 16.3144 24.9077 16.1703 24.8479C16.0261 24.7882 15.8951 24.7006 15.7849 24.5902L12.2224 21.0277C11.9995 20.8048 11.8743 20.5026 11.8743 20.1875C11.8743 19.8724 11.9995 19.5702 12.2224 19.3473C12.4452 19.1245 12.7474 18.9993 13.0625 18.9993C13.3776 18.9993 13.6798 19.1245 13.9027 19.3473L16.625 22.0712L24.0974 14.5973C24.2077 14.487 24.3387 14.3995 24.4828 14.3398C24.627 14.2801 24.7815 14.2493 24.9375 14.2493C25.0935 14.2493 25.248 14.2801 25.3922 14.3398C25.5364 14.3995 25.6673 14.487 25.7777 14.5973C25.888 14.7077 25.9755 14.8387 26.0352 14.9828C26.0949 15.127 26.1257 15.2815 26.1257 15.4375C26.1257 15.5935 26.0949 15.748 26.0352 15.8922C25.9755 16.0363 25.888 16.1673 25.7777 16.2777Z" fill="white"/>
</svg>
