<svg width="48" height="48" viewBox="0 0 48 48" fill="none" xmlns="http://www.w3.org/2000/svg">
<rect width="48" height="48" rx="8" fill="#5BBDBA"/>
<path d="M24.5344 12.5227C24.4684 12.4456 24.3865 12.3837 24.2943 12.3413C24.2021 12.2988 24.1018 12.2769 24.0003 12.2769C23.8988 12.2769 23.7985 12.2988 23.7063 12.3413C23.6141 12.3837 23.5322 12.4456 23.4662 12.5227C21.6111 14.6924 15.5625 22.1936 15.5625 27.75C15.5625 32.9279 18.8227 36.1875 24 36.1875C29.1773 36.1875 32.4375 32.9279 32.4375 27.75C32.4375 22.1936 26.3889 14.6924 24.5344 12.5227ZM24.9375 33.1406C24.8249 33.1409 24.7139 33.1141 24.6138 33.0625C24.5137 33.0109 24.4274 32.936 24.3623 32.8441C24.2972 32.7522 24.2551 32.646 24.2396 32.5345C24.224 32.4229 24.2355 32.3093 24.273 32.2031C24.321 32.0646 24.4114 31.9447 24.5315 31.8605C24.6515 31.7764 24.795 31.7322 24.9416 31.7344C25.8723 31.7324 26.7643 31.3618 27.4224 30.7037C28.0805 30.0456 28.4511 29.1536 28.4531 28.2229C28.451 28.0763 28.4951 27.9327 28.5793 27.8127C28.6635 27.6927 28.7833 27.6022 28.9219 27.5543C29.0281 27.5168 29.1417 27.5053 29.2532 27.5208C29.3648 27.5363 29.471 27.5784 29.5628 27.6436C29.6547 27.7087 29.7296 27.7949 29.7812 27.895C29.8328 27.9951 29.8596 28.1061 29.8594 28.2188C29.858 29.5237 29.339 30.7748 28.4163 31.6975C27.4935 32.6202 26.2424 33.1392 24.9375 33.1406Z" fill="white"/>
</svg>
