<svg width="44" height="49" viewBox="0 0 44 49" fill="none" xmlns="http://www.w3.org/2000/svg">
<g clip-path="url(#clip0_70_161)">
<path d="M22.0638 16.4571C21.7369 16.132 21.2113 16.1249 20.8771 16.4426C19.2036 18.0333 14.5752 22.7488 14.0014 26.7544C13.2993 31.6565 17.4407 35.2001 21.4781 35.2001C25.5154 35.2001 29.696 31.7643 29.039 26.7544C28.5736 23.2058 23.7581 18.1423 22.0638 16.4571Z" fill="#5BBDBA"/>
</g>
<path d="M22 6.40015C33.0447 6.40015 41.9999 15.3555 42 26.4001C42 37.4449 33.0447 46.4001 22 46.4001C10.9553 46.4001 2 37.4449 2 26.4001C2.00005 15.3555 10.9553 6.40019 22 6.40015ZM9.67773 17.446C7.84709 19.9589 6.76565 23.0539 6.76562 26.4001C6.76562 34.8117 13.5884 41.6345 22 41.6345C25.3462 41.6345 28.4403 40.552 30.9531 38.7214L9.67773 17.446ZM22 11.1658C18.6537 11.1658 15.5587 12.2472 13.0459 14.0779L34.3213 35.3533C36.1518 32.8405 37.2344 29.7464 37.2344 26.4001C37.2343 17.9886 30.4116 11.1658 22 11.1658Z" fill="#5BBDBA" stroke="white" stroke-width="1.5"/>
<defs>
<clipPath id="clip0_70_161">
<rect width="35.2001" height="35.2002" fill="white" transform="translate(7.33301)"/>
</clipPath>
</defs>
</svg>
